<?xml version="1.0" standalone="no"?><!DOCTYPE svg PUBLIC "-//W3C//DTD SVG 1.1//EN" "http://www.w3.org/Graphics/SVG/1.1/DTD/svg11.dtd"><svg t="1578964054212" class="icon" viewBox="0 0 1026 1024" version="1.1" xmlns="http://www.w3.org/2000/svg" p-id="1388" xmlns:xlink="http://www.w3.org/1999/xlink" width="128.25" height="128"><defs><style type="text/css">* { color: rgb(153, 153, 153) !important; text-shadow: rgb(0, 0, 0) 0px 0px 3px !important; box-shadow: none !important; background-color: transparent !important; border-color: rgb(68, 68, 68) !important; }
</style></defs><path d="M995.84 144.05632H30.72a30.72 30.72 0 0 0-30.72 30.72v687.24736a30.72 30.72 0 0 0 30.72 30.72H995.84a30.72 30.72 0 0 0 30.72-30.72V174.77632a30.72 30.72 0 0 0-30.72-30.72z m-30.72 61.44V327.68H61.44V205.49632H965.12zM61.44 389.12H192v442.18368H61.44V389.12zM253.44 831.30368V389.12H965.12v442.18368H253.44z" fill="#555555" p-id="1389"></path><path d="M858.53184 470.38464l-192.24576 158.6176-183.16288-53.42208L322.4576 691.9168a30.69952 30.69952 0 0 0-6.8608 42.88512A30.64832 30.64832 0 0 0 340.50048 747.52c6.2464 0 12.55424-1.90464 17.99168-5.8368l136.2944-98.70336 185.4976 54.09792 217.35424-179.3024a30.73024 30.73024 0 0 0-39.10656-47.39072z" fill="#555555" p-id="1390"></path></svg>